<!DOCTYPE svg PUBLIC "-//W3C//DTD SVG 1.1//EN" "http://www.w3.org/Graphics/SVG/1.1/DTD/svg11.dtd">
<!-- Uploaded to: SVG Repo, www.svgrepo.com, Transformed by: SVG Repo Mixer Tools -->
<svg version="1.1" id="Layer_1" xmlns="http://www.w3.org/2000/svg" xmlns:xlink="http://www.w3.org/1999/xlink" viewBox="-51.2 -51.2 614.40 614.40" xml:space="preserve" width="800px" height="800px" fill="#ffbb00" stroke="#ffbb00" stroke-width="10.24">
<g id="SVGRepo_bgCarrier" stroke-width="0"/>
<g id="SVGRepo_tracerCarrier" stroke-linecap="round" stroke-linejoin="round" stroke="#544a4a" stroke-width="6.144"/>
<g id="SVGRepo_iconCarrier"> <circle style="fill:#E5E5E5;" cx="256" cy="256" r="256"/> <rect x="167.992" y="456" style="fill:#544a4a;" width="176" height="8"/> <polygon style="fill:#ADADAD;" points="311.992,456 199.992,456 207.992,400 303.992,400 "/> <path style="fill:#544a4a;" d="M447.992,360v32c0,4.4-3.6,8-8,8h-368c-4.4,0-8-3.6-8-8v-32H447.992z"/> <rect id="SVGCleanerId_0" x="79.992" y="120" style="fill:#FFFFFF;" width="352" height="224"/> <path style="fill:#3B3B3B;" d="M439.992,104h-368c-4.4,0-8,3.6-8,8v248h384V112C447.992,107.6,444.392,104,439.992,104z M431.992,344h-352V120h352V344z"/> <g> <rect id="SVGCleanerId_0_1_" x="79.992" y="120" style="fill:#FFFFFF;" width="352" height="224"/> </g> <g> <rect x="272" y="144" style="fill:#544a4a;" width="104" height="176"/> <rect x="136" y="272" style="fill:#544a4a;" width="112" height="8"/> <rect x="136" y="248" style="fill:#544a4a;" width="112" height="8"/> <rect x="136" y="224" style="fill:#544a4a;" width="112" height="8"/> <rect x="136" y="200" style="fill:#544a4a;" width="112" height="8"/> <rect x="136" y="176" style="fill:#544a4a;" width="112" height="8"/> <rect x="136" y="152" style="fill:#544a4a;" width="112" height="8"/> <rect x="136" y="296" style="fill:#544a4a;" width="112" height="8"/> </g> </g>
</svg>